<svg xmlns="http://www.w3.org/2000/svg" version="1.1" width="600px" height="600px" viewBox="0 0 200 200" style="overflow:hidden!important;"><g id="svga-group-wrapper"><g id="svga-group-backs-single"><path id="SvgjsPath13690" d="M0 0h200v200H0V0z" fill="#ecf0f1" stroke-width="none" opacity="1"></path><path id="SvgjsPath13691" d="M0 0v10.1L76.5 100 0 0zm0 34.1V50l76.5 58.3L0 34.1zm0 37.1v13.6l76.5 33.4L0 71.2zM38.3 0H21.1l67.2 108.3L38.3 0zm36.3 0H61l27.2 90L74.6 0zM0 108.3v9.9l76.5 9.9L0 108.3zM0 144v13.6l76.5-22.1L0 144zm0 35.7V200l88.3-64.5L0 179.7zM38.3 200h16.4l26.5-42.4L38.3 200zm85.2-100L200 10.1V0l-76.5 100zM200 50V34.1l-76.5 74.2L200 50zm0 34.8V71.2l-76.5 47L200 84.8zM178.9 0h-17.2l-50 108.3L178.9 0zM139 0h-13.6l-13.6 90L139 0zm61 118.2v-9.9L123.5 128l76.5-9.8zm0 39.4V144l-76.5-8.5 76.5 22.1zm0 42.4v-20.3l-88.3-44.2L200 200zm-54.7 0h16.4l-43-42.4 26.6 42.4zM111.7 0H88.3L100 100 111.7 0zM76.5 200h11.7l6.4-58.5L76.5 200zm35.2 0h11.7l-18.2-58.5 6.5 58.5zm-17 0h10.6l-5.3-42.4-5.3 42.4z" fill="#c6dce2" stroke-width="none" opacity="1"></path></g><g id="svga-group-humanwrap-move" transform="matrix(1,0,0,1,0,0)"><g id="svga-group-humanwrap"><g id="svga-group-hair-back-move" transform="matrix(1,0,0,1,0,0)"><g id="svga-group-hair-back"><path id="SvgjsPath13922" d="M57.4 66.1s.6 88.5 3.6 102.7 3.9 17 3.9 17l81.5.7s3.9-26.6 4.8-44.6-13-82.9-13-82.9l-80.8 7.1z" fill="#221b23" stroke-width="none" opacity="1"></path></g></g><g id="svga-group-humanbody-back"><path id="SvgjsPath13763" d="M77.8 105.9s4.8 37.7 10 55.8c0 0-6.4 8.8-14.5 11.9-28.7 11.2-35 11.2-39.6 15.2-2.4 2.1.2 11.1 1.8 17.2 1.3 5 1.7 13.2 1.7 13.2h132.2s1.6-33-.6-39.8-7.1-2.9-21.9-4.5c-14.8-1.6-28.7-10.3-31-13.2l.3-60-38.4 4.2z" fill="#f3d4cf" stroke-width="none" opacity="1"></path></g><g id="svga-group-chinshadow-single"><path id="SvgjsPath13759" d="M85.6 152.8c6.6 3.5 10.7 3.5 10.7 3.5s8 0 19.6-9.5l.2-45.2-38.4 4.2c.1.1 3.6 27.7 7.9 47z" fill="#d4958a" stroke-width="none" opacity="1"></path></g><g id="svga-group-humanbody-front"><path id="SvgjsPath13764" d="M72.1 183.1s14.6-.2 20.4 2.6c5.8 2.9 12.7 2.4 16.1-1s21.6-7 21.6-7-19.7 1.9-25 4.6c-5.3 2.7-22.3-2.8-33.1.8z" fill="#d4958a" stroke-width="none" opacity="1"></path><path id="SvgjsPath13765" d="M74.2 173.2c6.7-1.3 14.7-6.4 14.7-6.4l6.2 5.5c-4.3-7.9-12.7-41.1-12.7-41.1l-.7.7c1.7 10.5 3.9 21.9 6.1 29.7 0 0-6 8.2-13.6 11.6z" fill="#d4958a" stroke-width="none" opacity="1"></path><path id="SvgjsPath13766" d="M170.7 188.5c-.1-2.1-.2-4.1-.4-6.2-.1-1-.3-2.1-.6-3.2-.2-.5-.4-1-.6-1.6-.2-.5-.6-1-1-1.5s-.9-.9-1.5-1.1c-.6-.3-1.1-.4-1.7-.6-1.1-.2-2.2-.2-3.2-.2-2.1 0-4.1.1-6.1.1s-4-.1-6-.2-4-.4-6-.7c-1-.2-2-.4-2.9-.6l-1.5-.4c-.5-.1-1-.3-1.4-.4-3.8-1.1-7.6-2.6-11.2-4.4l-1.3-.7-1.3-.7c-.4-.2-.9-.5-1.3-.8s-.9-.5-1.3-.8-.8-.5-1.3-.8l-1.2-.9-.6-.5-.3-.2-.3-.2c-.2-.2-.4-.3-.5-.5l-.2-.3v-44.6l-.1-15v-.6l-.6.1c-6.4.8-12.9 1.5-19.3 2.3l-19.1 2.3v.5l.1.4.1.9.2 1.8c.1 1.2.3 2.3.4 3.5l.9 7c.6 4.7 1.3 9.4 2.1 14 .8 4.7 1.5 9.3 2.5 14 .9 4.5 1.8 9 3 13.5-1.1 1.4-2.3 2.7-3.6 4-1.3 1.3-2.8 2.6-4.3 3.8-1.5 1.1-3.1 2.2-4.8 3l-1.3.6c-.4.2-.9.3-1.3.5l-2.7 1c-7.2 2.7-14.5 5.3-21.8 7.7l-5.5 1.8c-1.8.6-3.7 1.3-5.5 2.2-.4.2-.9.5-1.3.7-.4.3-.9.5-1.3.9l-.6.5c-.2.2-.5.5-.6.8-.3.5-.4 1.1-.5 1.6-.2 1.1-.1 2.1 0 3.1s.3 2 .4 2.9c.4 1.9.8 3.8 1.3 5.7l.8 2.8c.3.9.5 1.8.7 2.8.4 1.9.7 3.8.9 5.7s.4 3.8.5 5.7v.8h133.4v-.8c.2-4.1.4-8.2.5-12.3s.2-8.2.2-12.3c0-1.8-.1-3.8-.1-5.9zm-67.4 30.3H70.2l-16.5-.1-16-.1c-.1-1.8-.2-3.5-.4-5.3-.2-1.9-.4-3.9-.8-5.8-.2-1-.4-1.9-.7-2.9l-.7-2.8c-.5-1.9-.9-3.7-1.2-5.6-.2-.9-.3-1.9-.4-2.8-.1-.9-.1-1.9 0-2.7.1-.4.2-.8.4-1.1.1-.2.2-.3.3-.4l.5-.4c.3-.3.7-.5 1.1-.8.4-.2.8-.5 1.2-.7 1.7-.8 3.5-1.4 5.3-2l5.5-1.8c7.3-2.4 14.6-5 21.8-7.8l2.7-1c.5-.2.9-.3 1.4-.5l1.4-.6c1.8-.9 3.4-2 5-3.2s3-2.5 4.4-3.9 2.7-2.9 3.8-4.5l.2-.3-.1-.3c-1.3-4.5-2.3-9.1-3.3-13.7s-1.9-9.3-2.7-13.9c-.8-4.6-1.6-9.3-2.4-14l-2.2-13.9 19.3-1.8c6.2-.6 12.3-1.2 18.5-1.8l-.2 14.4-.2 15-.3 30v.4l.2.2.6.7.6.6.3.3.3.2.6.5c.4.3.9.6 1.3.9.4.3.9.6 1.3.9.4.3.9.5 1.3.8s.9.5 1.3.8l1.4.8 1.4.7c.5.2.9.5 1.4.7l1.4.7c1 .4 1.9.8 2.9 1.2s1.9.8 2.9 1.1l1.5.5c.5.2 1 .3 1.5.4.5.1 1 .3 1.5.4l1.5.4c1 .3 2 .4 3 .6 2 .4 4.1.6 6.2.8 2.1.2 4.1.2 6.2.2 2.1 0 4.1-.1 6.1-.1s4 .1 5 1.3c.5.6.9 1.4 1.2 2.3.3.9.4 1.9.6 2.8.3 2 .4 4 .5 6s.1 4.1.2 6.1c.1 7.9-.1 15.8-.4 23.7-10.8.1-21.5.1-32.3.2h-33.1z" fill="#c5796d" stroke-width="none" opacity="1"></path><path id="SvgjsPath13767" d="M150.7 219.2 147 198l-.4 21.2z" fill="#d4958a" stroke-width="none" opacity="1"></path><path id="SvgjsPath13768" d="M47.3 203.5s2.2 11.5 2.9 15.7h3.5l-6.4-15.7z" fill="#d4958a" stroke-width="none" opacity="1"></path></g><g id="svga-group-clothes-single"><path id="SvgjsPath13903" d="M72.29 172.58s2.02 7.56 17.38 13.74 41.96-.02 44.23-15.23c0 0 6.36 1.86 14.04 2.24 7.68.37 15.92-.37 18.16.56 2.25.94 5.62 3.18 4.87 13.3-.75 10.11.19 23.22.19 23.22l-23.03 1.5.52 7.9H52.63l-1.87-5.47-15.73-1.12s-.19-7.12-1.31-9.92c-1.12-2.81-3.18-10.3-2.06-14.04s11.24-6.74 17.98-8.99c6.73-2.26 22.65-7.69 22.65-7.69z" fill="#1c550b" stroke-width="none" opacity="1"></path><path id="SvgjsPath13904" d="M171.11 192.7c.04-1.47.1-2.94.22-4.41.11-1.45.23-2.97.22-4.46-.03-1.5-.14-3.02-.5-4.51-.37-1.48-.95-2.99-2.06-4.18-.54-.6-1.2-1.1-1.9-1.47-.66-.39-1.56-.65-2.31-.73-1.54-.2-3.02-.22-4.51-.24-2.97-.03-5.91.01-8.85-.07-5.85-.05-11.69-.84-17.28-2.38l-.98-.27-.15.99c-.45 2.88-1.86 5.58-3.91 7.73-2.04 2.17-4.6 3.87-7.33 5.2-5.49 2.64-11.64 3.88-17.75 4.09-3.06.09-6.14-.12-9.15-.71-1.5-.3-2.98-.7-4.42-1.21-.72-.25-1.43-.58-2.14-.86-.72-.29-1.43-.59-2.12-.94-2.8-1.29-5.51-2.82-7.94-4.71-1.22-.94-2.37-1.98-3.38-3.14a15.6 15.6 0 0 1-1.42-1.82 12.408 12.408 0 0 1-.86-1.5c-.04-.09-.08-.17-.12-.26-.05-.1-.04-.15-.15-.33l-16.4 5.19-8.28 2.65c-2.74.86-5.49 1.72-8.19 2.76-1.35.52-2.7 1.09-4.01 1.77-1.3.69-2.62 1.44-3.7 2.68-.27.31-.5.68-.69 1.08-.2.45-.24.81-.35 1.2-.12.77-.19 1.54-.18 2.29.01 1.5.19 2.97.44 4.42.26 1.44.59 2.87.99 4.28.2.7.42 1.4.66 2.1.28.75.47 1.27.62 1.95.56 2.67.72 5.57.81 8.37l.03.87.87.07c5.01.41 10.03.75 15.05 1.13l1.65 4.83.24.7h.74c8 0 16 .06 24.01.01l24.01-.11 24.01-.16 24.01-.27.54-.01-.04-.53-.57-7.48c3.7-.29 7.39-.53 11.09-.79l11.51-.79.3-.02-.02-.3c-.36-5.9-.51-11.81-.36-17.7zm-11.49 18.1c-3.84.23-7.68.48-11.52.68l-.41.02.02.42.41 7.37-23.48-.26-24.01-.16-24.01-.11c-7.76-.05-15.51 0-23.27.01L51.72 214l-.22-.64-.67-.05c-4.96-.34-9.92-.71-14.88-1.02-.14-2.62-.35-5.2-.94-7.84-.16-.72-.47-1.55-.71-2.14-.24-.65-.46-1.32-.66-1.99-.41-1.35-.75-2.72-1.01-4.09-.26-1.38-.45-2.77-.48-4.13-.03-.69.03-1.35.12-2 .07-.3.13-.65.23-.87.11-.24.25-.49.46-.73.79-.95 1.99-1.72 3.19-2.39 1.22-.67 2.51-1.26 3.82-1.8 2.62-1.09 5.33-2.02 8.05-2.95 2.73-.94 5.35-1.88 8.03-2.84l16.22-5.86c-.06.01.03.14.04.23.03.1.07.18.11.28.07.19.16.36.24.54.17.36.36.7.56 1.04.41.67.86 1.32 1.36 1.93a23.82 23.82 0 0 0 3.33 3.33c2.41 2.02 5.1 3.68 7.91 5.1.7.37 1.41.69 2.13 1 .72.31 1.42.65 2.17.94 1.48.57 3 1.02 4.55 1.37 3.09.69 6.26.98 9.42.96 6.32-.05 12.65-1.32 18.44-4.01 2.87-1.37 5.62-3.14 7.87-5.49 2.03-2.1 3.61-4.77 4.24-7.7a68.752 68.752 0 0 0 16.8 2.06c2.97.01 5.93-.1 8.87-.14 1.46-.01 2.94-.03 4.34.12.72.08 1.26.21 1.9.55.61.3 1.15.7 1.61 1.18.95.96 1.51 2.28 1.89 3.64.36 1.37.51 2.82.58 4.26.04 1.46-.03 2.9-.11 4.39-.07 1.48-.11 2.96-.15 4.44-.09 5.82.12 11.63.5 17.44l-11.25.68z" fill="#0c3600" stroke-width="none" opacity="1"></path></g><g id="svga-group-head" transform="matrix(1,0,0,1,0,0)"><g id="svga-group-ears-left-move" transform="matrix(1,0,0,1,0,0)"><g id="svga-group-ears-left"><path id="SvgjsPath13711" d="M63.09 94.03s-3.12-7.36-5.69-9.71c-2.57-2.34-7.59-5.02-9.48-4.35-1.9.67 1.12 8.81 2.23 10.6 1.12 1.79 1.12 11.49 1.23 14.39.11 2.9 2.9 6.25 5.02 8.7 2.12 2.45 4.24-1.12 5.69-4.35s1-15.28 1-15.28z" fill="#f3d4cf" stroke-width="none" opacity="1"></path><path id="SvgjsPath13712" d="M61.92 100.31c-.33-2.85-5.11-11.21-6.86-12.8-1.76-1.59-5.69-4.44-5.77-3.52s2.26 5.69 2.34 8.54.17 10.96 1.09 12.72c.92 1.76 5.69 1.51 6.53-.17s2.67-4.77 2.67-4.77z" fill="#e4b3ab" stroke-width="none" opacity="1"></path><path id="SvgjsPath13713" d="M47.07 80.79c-.11.94.06 1.79.25 2.64.4 1.69.98 3.31 1.62 4.9.33.79.68 1.58 1.11 2.33.35.72.47 1.6.59 2.43.22 1.69.26 3.4.32 5.11.04 1.71.03 3.42.05 5.13.03.85-.04 1.71.14 2.62.17.89.52 1.72.93 2.5.82 1.56 1.87 2.94 2.96 4.28.27.33.55.67.83.99.13.16.29.33.47.5.16.18.38.32.6.45.46.25 1.07.32 1.58.14.49-.19.88-.49 1.21-.81.66-.65 1.13-1.41 1.57-2.16.43-.76.81-1.54 1.15-2.34.63-1.74.72-3.45.84-5.17.17-3.44.07-6.86-.15-10.29-.62-1.62-1.31-3.18-2.08-4.71-.79-1.52-1.59-3.06-2.7-4.42-.56-.69-1.24-1.27-1.92-1.8-.69-.53-1.41-1.01-2.15-1.47-1.49-.89-3.07-1.66-4.83-2.01-.44-.07-.91-.11-1.4.01-.22.02-.56.2-.71.44-.18.22-.23.47-.28.71zm.56.1c.04-.18.1-.36.19-.47.1-.11.16-.15.37-.18.35-.08.75-.02 1.14.05 1.6.33 3.13 1.13 4.58 1.96.73.42 1.44.88 2.11 1.38.68.51 1.32 1.03 1.85 1.67 1.07 1.27 1.97 2.74 2.81 4.22.83 1.48 1.63 3.01 2.37 4.53-.03 3.41-.11 6.84-.4 10.23-.16 1.68-.34 3.42-.92 4.9-.73 1.51-1.47 3.09-2.59 4.22-.28.27-.59.49-.9.61-.31.1-.61.06-.9-.09-.55-.33-1.09-1.11-1.65-1.73-1.09-1.3-2.14-2.64-2.94-4.1-.4-.73-.72-1.5-.9-2.28-.17-.76-.15-1.64-.19-2.49-.06-1.71-.14-3.42-.25-5.13-.11-1.71-.25-3.42-.48-5.12-.14-.85-.25-1.71-.66-2.52-.43-.72-.75-1.52-1.07-2.31-.62-1.59-1.13-3.22-1.44-4.89-.14-.84-.26-1.7-.13-2.46z" fill="#e4b3ab" stroke-width="none" opacity="1"></path><path id="SvgjsPath13714" d="M53.38 89.46c.58 1.22 1.11 2.47 1.51 3.75.4 1.29.75 2.59 1.06 3.9.29 1.31.56 2.63.72 3.97l-.08.02c-.42-1.28-.8-2.56-1.2-3.84-.39-1.28-.78-2.56-1.2-3.82-.41-1.27-.78-2.55-1.24-3.8-.38-1.05-.84-2.1-1.49-3 .37 1.58.79 3.15 1.13 4.74.19.9.36 1.8.49 2.71.07.46.13.92.17 1.38.05.46.04.98.04 1.39.05 1.78.28 3.6.53 5.39.14.9.28 1.79.47 2.67.09.44.2.88.32 1.3.01.02.01.04.02.06.04-.85.09-1.71.11-2.56.04-1.28.1-2.55.06-3.83l.08-.01c.17 1.27.2 2.56.25 3.84.03 1.28.04 2.56.05 3.84v.8l-.52-.59c-.4-.46-.51-.9-.68-1.34-.15-.45-.28-.89-.39-1.34-.23-.9-.42-1.8-.58-2.71-.31-1.82-.56-3.63-.58-5.51.09-1.79-.24-3.58-.47-5.39-.26-1.8-.5-3.62-.9-5.4l-.12-.54.35.42c.88 1.08 1.49 2.29 2.09 3.5z" fill="#c5796d" stroke-width="none" opacity="1"></path></g></g><g id="svga-group-ears-right-move" transform="matrix(1,0,0,1,0,0)"><g id="svga-group-ears-right"><path id="SvgjsPath13715" d="M136.91 94.03s3.12-7.36 5.69-9.71c2.57-2.34 7.59-5.02 9.48-4.35s-1.12 8.81-2.23 10.6c-1.12 1.79-1.12 11.49-1.23 14.39-.11 2.9-2.9 6.25-5.02 8.7-2.12 2.45-4.24-1.12-5.69-4.35-1.45-3.23-1-15.28-1-15.28z" fill="#f3d4cf" stroke-width="none" opacity="1"></path><path id="SvgjsPath13716" d="M138.08 100.31c.33-2.85 5.11-11.21 6.86-12.8 1.76-1.59 5.69-4.44 5.77-3.52.08.92-2.26 5.69-2.34 8.54s-.17 10.96-1.09 12.72c-.92 1.76-5.69 1.51-6.53-.17s-2.67-4.77-2.67-4.77z" fill="#e4b3ab" stroke-width="none" opacity="1"></path><path id="SvgjsPath13717" d="M152.66 80.07c-.15-.24-.49-.42-.71-.44-.49-.12-.96-.08-1.4-.01-1.76.35-3.34 1.12-4.83 2.01-.74.45-1.46.93-2.15 1.47-.68.53-1.36 1.1-1.92 1.8-1.11 1.36-1.91 2.9-2.7 4.42-.77 1.54-1.46 3.1-2.08 4.71-.23 3.43-.33 6.85-.15 10.29.12 1.72.22 3.44.84 5.17.34.79.72 1.58 1.15 2.34.44.76.91 1.51 1.57 2.16.33.32.72.62 1.21.81.51.18 1.11.11 1.58-.14.22-.14.44-.27.6-.45.18-.17.34-.34.47-.5.28-.32.55-.66.83-.99 1.09-1.34 2.14-2.72 2.96-4.28.4-.78.75-1.61.93-2.5.17-.92.11-1.77.14-2.62.02-1.71.01-3.42.05-5.13.05-1.71.1-3.42.32-5.11.12-.83.23-1.71.59-2.43.43-.76.78-1.54 1.11-2.33.64-1.59 1.21-3.21 1.62-4.9.18-.85.36-1.7.25-2.64-.06-.23-.11-.48-.28-.71zm-.42 3.27c-.31 1.66-.82 3.3-1.44 4.89-.32.79-.63 1.59-1.07 2.31-.41.81-.52 1.67-.66 2.52-.22 1.7-.37 3.41-.48 5.12-.11 1.71-.2 3.42-.25 5.13-.05.85-.02 1.73-.19 2.49-.18.79-.5 1.55-.9 2.28-.8 1.46-1.85 2.8-2.94 4.1-.56.62-1.1 1.4-1.65 1.73-.29.15-.59.19-.9.09-.31-.12-.62-.34-.9-.61-1.12-1.13-1.86-2.71-2.59-4.22-.58-1.47-.76-3.22-.92-4.9-.29-3.39-.37-6.82-.4-10.23.74-1.52 1.54-3.05 2.37-4.53.84-1.48 1.73-2.95 2.81-4.22.53-.63 1.17-1.16 1.85-1.67.67-.5 1.39-.96 2.11-1.38 1.45-.83 2.98-1.63 4.58-1.96.39-.07.8-.12 1.14-.05.21.03.27.07.37.18.09.11.15.29.19.47.13.77.01 1.63-.13 2.46z" fill="#e4b3ab" stroke-width="none" opacity="1"></path><path id="SvgjsPath13718" d="M146.62 89.46c-.58 1.22-1.11 2.47-1.51 3.75-.4 1.29-.75 2.59-1.06 3.9-.29 1.31-.56 2.63-.72 3.97l.08.02c.42-1.28.8-2.56 1.2-3.84.39-1.28.78-2.56 1.2-3.82.41-1.27.78-2.55 1.24-3.8.38-1.05.84-2.1 1.49-3-.37 1.58-.79 3.15-1.13 4.74-.19.9-.36 1.8-.49 2.71-.07.46-.13.92-.17 1.38-.05.46-.04.98-.04 1.39-.05 1.78-.28 3.6-.53 5.39-.14.9-.28 1.79-.47 2.67-.09.44-.2.88-.32 1.3-.01.02-.01.04-.02.06-.04-.85-.09-1.71-.11-2.56-.04-1.28-.1-2.55-.06-3.83l-.08-.01c-.17 1.27-.2 2.56-.25 3.84-.03 1.28-.04 2.56-.05 3.84v.8l.52-.59c.4-.46.51-.9.68-1.34.15-.45.28-.89.39-1.34.23-.9.42-1.8.58-2.71.31-1.82.56-3.63.58-5.51-.09-1.79.24-3.58.47-5.39.26-1.8.5-3.62.9-5.4l.12-.54-.35.42c-.88 1.08-1.49 2.29-2.09 3.5z" fill="#c5796d" stroke-width="none" opacity="1"></path></g></g><g id="svga-group-faceshape-wrap"><g id="svga-group-faceshape-single"><path id="SvgjsPath13745" d="M135.9 49.8c-6.7-7.4-11.3-13.2-28.8-17.3-1.8-.4-12.3-.4-14.1 0-17.5 4.1-22.1 9.9-28.8 17.3-7.1 7.8-9.5 29-9.5 29 0 9.6 1.3 32.3 13.3 47.2 17.8 22.2 32.1 22.3 32.1 22.3s14.2 0 32.1-22.3c12-14.9 13.3-37.6 13.3-47.2-.1 0-2.5-21.2-9.6-29z" fill="#f3d4cf" stroke-width="none" opacity="1"></path><path id="SvgjsPath13746" d="M107.1 32.5c-1.8-.4-12.3-.4-14.1 0-17.5 4.1-22.1 9.9-28.8 17.3-7.1 7.8-9.5 29-9.5 29 0 9.6 1.3 32.3 13.3 47.2 17.8 22.2 32.1 22.3 32.1 22.3s14.2 0 32.1-22.3c12-14.9 13.3-37.6 13.3-47.2 0 0-2.4-21.2-9.5-29-6.9-7.4-11.5-13.2-28.9-17.3zM142 63.8c.7 2.5 1.1 5 1.6 7.5.4 2.5.7 5 1 7.5-.2 7.4-1.3 14.8-3 22-.9 3.6-1.9 7.1-3.3 10.5-.7 1.7-1.4 3.4-2.2 5s-1.7 3.2-2.7 4.7l-1.5 2.2c-.3.4-3.4 4.2-3.4 4.2l-3.7 4.1-6.1 5.7c-2.8 2.3-5.8 4.5-9 6.2l-1.2.6-1.2.6c-.8.4-1.6.7-2.5 1l-1.3.4c-.4.1-.8.2-1.3.3-.4.1-1.71.43-2.9.4 0 0-1.4-.2-1.9-.3-.4-.1-.9-.2-1.3-.3l-1.3-.4c-.8-.3-1.7-.6-2.5-1l-1.2-.5-1.2-.6c-3.2-1.6-6.3-3.7-9.1-6l-4.1-3.6-3.9-3.9-1-1-.9-1-1.8-2.1c-1.2-1.4-2.3-2.8-3.3-4.4-1-1.5-2-3.1-2.8-4.8-.8-1.6-1.6-3.3-2.3-5.1-.7-1.7-1.3-3.5-1.8-5.3s-1-3.6-1.4-5.4-.8-3.6-1-5.5c-.3-1.8-.5-3.7-.7-5.5-.4-3.7-.5-7.4-.5-11.1.3-2.3.8-4.6 1.2-6.9.5-2.3 1.1-4.6 1.7-6.8.7-2.2 1.4-4.5 2.3-6.6.4-1.1.9-2.1 1.4-3.1s2.59-4.47 6.3-8.1c1.6-1.7 3.3-3.3 5-4.7 3.5-2.8 7.7-4.9 12-6.5l1.6-.6c6.69-2.31 10.6-2.2 11.8-2.3 2.3-.1 4.71-.26 7-.1 3.16.22 6.8 1.4 6.8 1.4 2.3.6 4.5 1.3 6.7 2.3.3.1 1.6.7 1.6.7.5.3 2.6 1.3 3.1 1.7.5.3 5.3 3.7 6.9 5.4 1.7 1.7 3.3 3.4 4.9 5.2 1.7 1.9 2.9 4.2 3.9 6.6 1.1 2.4 1.9 4.8 2.5 7.3z" fill="#c5796d" stroke-width="none" opacity="1"></path></g></g><g id="svga-group-mouth-single-move" transform="matrix(1,0,0,1,0,0)"><g id="svga-group-mouth-single"><path id="SvgjsPath13700" d="M86.3 122.77s3.78 5.21 6.46 6.76c2.69 1.54 6.74 2.85 11.37 1.48s9.37-6.41 9.37-6.41-5.48-2.85-7.85-3.27c-2.37-.42-6 1.66-6 1.66s-2.47-1.96-3.95-2.2-9.4 1.98-9.4 1.98z" fill="#da7c87" stroke-width="none" opacity="1"></path><path id="SvgjsPath13701" d="M84.89 122.33c2.54.48 5.06 1.07 7.57 1.72 1.26.32 2.5.67 3.76 1.04.65.2 1.19.39 1.81.47.61.09 1.23.12 1.86.11 1.25.01 2.52-.11 3.77-.31.31-.05.62-.1.94-.16.32-.06.65-.12.97-.16.64-.1 1.29-.17 1.93-.24 1.29-.13 2.58-.21 3.87-.25 1.29.02 2.55-.09 3.83-.34-1.21.49-2.52.76-3.79.89-1.27.17-2.54.36-3.81.57l-1.89.34c-.31.06-.62.13-.93.2l-.96.21c-1.29.24-2.59.37-3.91.38-.66-.01-1.32-.04-1.99-.15-.66-.09-1.36-.32-1.94-.53l-3.69-1.21c-2.49-.82-4.95-1.65-7.4-2.58z" fill="#cb5f6c" stroke-width="none" opacity="1"></path></g></g><g id="svga-group-eyes-left-move" transform="matrix(1,0,0,1,0,0)"><g id="svga-group-eyes-left" transform="matrix(0.9499998000000001,0,0,0.9499998000000001,4.010015887411498,4.515017831117248)"><g id="svga-group-eyesback-left"><path id="SvgjsPath13833" d="M80.2 77.2c7.5 0 13.5 5.8 13.5 13s-6 13-13.5 13-13.5-5.8-13.5-13 6-13 13.5-13z" fill="#ffffff" stroke-width="none" opacity="1"></path></g><g id="svga-group-eyesiriswrapper-left" transform="matrix(1,0,0,1,0,0)"><g id="svga-group-eyesiriscontrol-left" transform="matrix(1,0,0,1,0,0)"><g id="svga-group-eyesiris-left"><path id="SvgjsPath13783" d="M80.2 84.9c2.9 0 5.3 2.4 5.3 5.3s-2.4 5.3-5.3 5.3-5.3-2.4-5.3-5.3 2.4-5.3 5.3-5.3z" fill="#4e60a3" stroke-width="none" opacity="1"></path><path id="SvgjsPath13784" d="M84.7 87.3c.4.6.7 1.2.8 1.9s.2 1.4.1 2.2-.4 1.4-.8 2.1c-.4.6-1 1.1-1.6 1.5s-1.3.6-2.1.7c-.7.1-1.4.1-2.2-.1-1.4-.3-2.7-1.1-3.5-2.3-.4-.6-.7-1.3-.9-2-.2-.7-.2-1.5 0-2.2.1-.7.4-1.4.8-2.1.4-.6 1-1.2 1.6-1.6s1.3-.7 2.1-.8c.7-.1 1.5-.1 2.2.1 1.6.5 2.7 1.4 3.5 2.6zm0 0-.3-.4c-.1-.1-.2-.3-.3-.4-.1-.1-.3-.2-.4-.3-.1-.1-.3-.2-.4-.3-.6-.4-1.2-.6-1.9-.7-1.3-.2-2.7.1-3.8.8-1.1.7-1.9 1.8-2.2 3.1-.3 1.3-.1 2.7.6 3.8.3.6.8 1.1 1.4 1.5s1.2.7 1.9.8c.7.1 1.4.1 2-.1.7-.2 1.3-.4 1.8-.8s1-.8 1.4-1.4.7-1.1.9-1.8c.2-.6.2-1.3.2-2-.3-.5-.6-1.2-.9-1.8z" fill="#253984" stroke-width="none" opacity="1"></path><path id="SvgjsPath13785" d="M80.2 88.3c1 0 1.9.9 1.9 1.9s-.9 1.9-1.9 1.9-1.9-.9-1.9-1.9.9-1.9 1.9-1.9z" fill="#000000" stroke-width="none" opacity="1"></path><path id="SvgjsPath13786" d="M80.2 92.3c-1.2 0-2.1-.9-2.1-2.1s.9-2.1 2.1-2.1 2.1.9 2.1 2.1-1 2.1-2.1 2.1zm0-3.8c-.9 0-1.7.8-1.7 1.7 0 .9.8 1.7 1.7 1.7.9 0 1.7-.8 1.7-1.7s-.7-1.7-1.7-1.7z" fill="#253984" stroke-width="none" opacity="1"></path><path id="SvgjsPath13787" d="M77.7 86.2c.4-.2 1.2.3 1.7 1.1.5.9.6 1.8.1 2s-1.2-.3-1.7-1.1c-.4-.8-.5-1.7-.1-2zm3.7 5c.4 0 .6.3.6.6s-.3.6-.6.6-.6-.3-.6-.6.3-.6.6-.6z" fill="#ffffff" stroke-width="none" opacity="1"></path></g></g></g><g id="svga-group-eyesfront-left"><path id="SvgjsPath13841" d="M80.2 76.7c-7.8 0-14.1 6.1-14.1 13.6s6.3 13.6 14.1 13.6 14.1-6.1 14.1-13.6S88 76.7 80.2 76.7zM68.5 95.3s3.6-5.3 5.3-6.9c1.7-1.6 3.2-1.7 6.3-1.8s6.5.1 8.2 2.3c1.7 2.2 2.8 6 2.8 6-7.7-3.1-22.6.4-22.6.4z" fill="#f3d4cf" stroke-width="none" opacity="1"></path><path id="SvgjsPath13842" d="M76.5 98.7c-3.5-.3-7.9-1.9-7.9-1.9 4.5 2.9 7.9 1.9 7.9 1.9z" fill="#e4b3ab" stroke-width="none" opacity="1"></path><path id="SvgjsPath13843" d="M91 94.8c-.2-1.2-.5-2.4-1-3.6s-1.1-2.4-2.2-3.4c-.4-.4-.9-.7-1.4-1l.1-.2c.1-.1 0-.3-.1-.3s-.3 0-.3.1l-.1.2c-.3-.2-.7-.2-1-.4-.1 0-.2-.1-.3-.1l.2-.7c0-.1 0-.3-.2-.3-.1 0-.3 0-.3.2l-.1.7c-.1 0-.2 0-.3-.1-.5-.1-.9-.1-1.4-.1l.1-1.3c0-.1-.1-.2-.2-.2s-.2.1-.3.2l-.1 1.3H80c0-.2-.1-.3-.1-.4-.1-.3-.2-.5-.2-.9 0-.1-.2-.2-.3-.2-.1 0-.2.2-.2.3.1.4.2.7.2.9 0 .1.1.2.1.3-.5 0-1.1.1-1.6.1-.2 0-.4.1-.6.1-.1-.2-.1-.4-.2-.5-.1-.2-.2-.5-.3-.8 0-.1-.2-.2-.3-.2s-.2.2-.2.3c.1.3.2.6.3.8.1.1.1.3.2.4-.3.1-.7.1-1 .2s-.7.3-1 .5l-.9-1c-.1-.1-.2-.1-.3 0s-.1.2 0 .3l.9 1c-.2.1-.3.3-.5.4-.2.2-.5.4-.7.7-.2-.2-.3-.3-.4-.5 0-.1-.2-.2-.3-.2s-.2.2-.2.3c.1.3.3.5.5.8-.1.2-.3.3-.4.5-1.3 1.8-2.6 3.6-3.8 5.4-.1.2-.3.4-.4.6l-.3.6.5-.1c1.8-.4 3.7-.7 5.6-.9 1.9-.3 3.8-.5 5.7-.6 1.9-.1 3.8-.2 5.7 0 .9.1 1.9.2 2.8.3.9.2 1.8.4 2.8.7-.1-.1-.1-.2-.1-.2zm-2.7-.7c-.9-.2-1.9-.3-2.8-.4-1.9-.2-3.8-.2-5.7-.1-1.9.1-3.8.3-5.7.6l-5.1.9c.2-.3.4-.7.7-1 1.3-1.4 2.6-2.7 3.8-4.1.4-.4.9-.9 1.3-1.2.5-.4 1-.7 1.5-.8.2-.1.5-.1.8-.2s.6-.1.9-.1c.6-.1 1.3-.1 1.9-.1 1.3-.1 2.6-.1 3.8 0 .5 0 1.2.2 1.7.4.6.2 1.1.5 1.5.9s.9.8 1.2 1.3c.4.5.7 1 1 1.6.6 1 1.1 2.1 1.6 3.2 0 .1.1.1.1.2-.6-.7-1.6-.9-2.5-1.1z" fill="#000000" stroke-width="none" opacity="1"></path></g></g></g><g id="svga-group-eyes-right-move" transform="matrix(1,0,0,1,0,0)"><g id="svga-group-eyes-right" transform="matrix(0.9499998000000001,0,0,0.9499998000000001,5.99002430332412,4.515017831117248)"><g id="svga-group-eyesback-right"><path id="SvgjsPath13834" d="M119.8 77.2c7.5 0 13.5 5.8 13.5 13s-6 13-13.5 13-13.5-5.8-13.5-13 6-13 13.5-13z" fill="#ffffff" stroke-width="none" opacity="1"></path></g><g id="svga-group-eyesiriswrapper-right" transform="matrix(1,0,0,1,0,0)"><g id="svga-group-eyesiriscontrol-right" transform="matrix(1,0,0,1,0,0)"><g id="svga-group-eyesiris-right"><path id="SvgjsPath13788" d="M119.8 85.5c2.6 0 4.7 2.1 4.7 4.7s-2.1 4.7-4.7 4.7-4.7-2.1-4.7-4.7 2.1-4.7 4.7-4.7z" fill="#4e60a3" stroke-width="none" opacity="1"></path><path id="SvgjsPath13789" d="M123.8 87.7c.3.5.6 1.1.7 1.7s.2 1.2.1 1.9c-.1.6-.3 1.2-.7 1.8s-.8 1-1.4 1.3-1.2.5-1.8.6-1.3.1-1.9-.1c-1.2-.3-2.3-1-3.1-2-.4-.5-.6-1.1-.8-1.7s-.1-1.3 0-1.9.4-1.2.7-1.8.8-1 1.4-1.4c.6-.3 1.2-.6 1.8-.7.6-.1 1.3-.1 1.9.1 1.4.3 2.4 1.1 3.1 2.2zm-.1 0-.3-.4-.3-.3-.3-.3c-.1-.1-.2-.2-.4-.3-.5-.3-1.1-.5-1.7-.6-1.2-.2-2.3.1-3.3.7-.9.6-1.7 1.6-1.9 2.7-.3 1.1-.1 2.3.5 3.4.3.5.7 1 1.2 1.3s1.1.6 1.6.7c.6.1 1.2.1 1.8-.1.6-.1 1.1-.4 1.6-.7s.9-.7 1.2-1.2.6-1 .8-1.6c.2-.6.2-1.2.1-1.8-.1-.4-.3-1-.6-1.5z" fill="#253984" stroke-width="none" opacity="1"></path><path id="SvgjsPath13790" d="M119.8 88.5c.9 0 1.7.8 1.7 1.7s-.8 1.7-1.7 1.7-1.7-.8-1.7-1.7.8-1.7 1.7-1.7z" fill="#000000" stroke-width="none" opacity="1"></path><path id="SvgjsPath13791" d="M119.8 92.1c-1 0-1.8-.8-1.8-1.8s.8-1.8 1.8-1.8 1.8.8 1.8 1.8-.8 1.8-1.8 1.8zm0-3.4c-.8 0-1.5.7-1.5 1.5s.7 1.5 1.5 1.5 1.5-.7 1.5-1.5-.7-1.5-1.5-1.5z" fill="#253984" stroke-width="none" opacity="1"></path><path id="SvgjsPath13792" d="M117.6 86.7c.4-.2 1 .2 1.5 1 .4.8.5 1.5.1 1.8-.4.2-1-.2-1.5-1-.4-.8-.4-1.6-.1-1.8zm3.3 4.4c.3 0 .6.3.6.6s-.3.6-.6.6-.6-.3-.6-.6.3-.6.6-.6z" fill="#ffffff" stroke-width="none" opacity="1"></path></g></g></g><g id="svga-group-eyesfront-right"><path id="SvgjsPath13844" d="M119.8 76.7c-7.8 0-14.1 6.1-14.1 13.6s6.3 13.6 14.1 13.6 14.1-6.1 14.1-13.6-6.3-13.6-14.1-13.6zM110 94.5s.6-2.6 2.2-4.6 4.9-2.2 7.9-2.1 4.4.3 6 1.7 5 6.3 5 6.3c-1.6-.1-13-6.1-21.1-1.3z" fill="#f3d4cf" stroke-width="none" opacity="1"></path><path id="SvgjsPath13847" d="m111.6 97 14.3.7c.1.1-7.9 1.4-14.3-.7z" fill="#e4b3ab" stroke-width="none" opacity="1"></path><path id="SvgjsPath13848" d="M131.3 95.9c-.6-.9-1.2-1.7-1.8-2.5-.1-.1-.1-.2-.1-.2-.3-.5-.6-1.1-.9-1.6l-.4-.8c-.2-.3-.3-.6-.5-.8-.2-.2-.3-.4-.5-.6l.6-.4c.1-.1.1-.2.1-.4-.1-.1-.2-.2-.3-.1l-.7.5c-.4-.4-1-.8-1.5-1.1l.4-1c.1-.1 0-.3-.1-.3s-.3 0-.3.1l-.4 1c-.1 0-.2-.1-.2-.1-.5-.2-.9-.3-1.4-.4l.1-1c0-.1-.1-.3-.2-.3s-.2.1-.3.2l-.1 1c-.6-.1-1.2-.1-1.7-.2h-.2V86c0-.2-.1-.3-.2-.3s-.2.1-.2.2v.9c-.4 0-.7-.1-1.1-.1h-.6c-.1-.3-.1-.7-.2-1 0-.2-.1-.3-.2-.3s-.2.1-.2.3c0 .4.1.7.1 1.1-.2 0-.5.1-.7.1s-.5.1-.7.2l-.3-1.3c0-.1-.2-.2-.3-.2-.1 0-.2.2-.2.3l.3 1.3c-.4.1-.9.3-1.3.4-.1-.3-.1-.6-.1-1 0-.2-.1-.3-.2-.3s-.2.1-.3.2c0 .4 0 .8.2 1.2l-.6.3c-.1 0-.1.1-.2.1-.2-.2-.3-.4-.4-.6-.1-.1-.2-.2-.3-.1-.1.1-.2.2-.1.3.1.2.2.4.4.6-.3.2-.7.4-1 .8-.5.5-.8 1.1-1.1 1.7-.5 1.2-1 3.5-1 3.5v.3c1.7-.9 3.4-1.4 5.2-1.6 1.8-.2 3.6-.1 5.4.2s3.5.8 5.3 1.3c.9.3 1.7.6 2.6.9l1.3.5c.4.2.9.3 1.4.4l.5.1-.8-.5zm-2.7-1c-.9-.3-1.7-.7-2.6-1-1.8-.6-3.5-1-5.4-1.3-1.8-.2-3.7-.3-5.5 0-.9.1-1.8.3-2.7.7-.9.3-1.7.7-2.5 1.3.2-.5.3-1 .6-1.5.3-.6.7-1.3 1-1.8s.7-1 1.1-1.3.9-.6 1.4-.8c1-.4 2.1-.7 3.2-.8.6-.1 1.1-.1 1.6-.1s1.1.1 1.7.1c1.2.1 2.3.2 3.2.5 1 .3 1.9 1 2.6 1.8.2.2.3.5.5.7s.3.5.5.8c.4.5.8 1 1.1 1.5.5.6 1.1 1.3 1.7 1.8.1.1.1.2.1.2-.2-.1-.5-.2-.7-.3l-.9-.5z" fill="#000000" stroke-width="none" opacity="1"></path></g></g></g><g id="svga-group-facehighlight-single"></g><g id="svga-group-eyebrows-left-move" transform="matrix(1,0,0,1,0,0)"><g id="svga-group-eyebrows-left-rotate" transform="matrix(1,1.7453292519943295e-9,-1.7453292519943295e-9,1,1.3491613515270728e-7,-1.3681636801265995e-7)"><g id="svga-group-eyebrows-left"><path id="SvgjsPath13889" d="M64.67 79.76c2.13-1.22 4.29-2.43 6.52-3.32.55-.23 1.11-.42 1.66-.55l.4-.08c.11 0 .2-.01.34 0 .13 0 .26.02.4.04.14.01.28.04.42.07 1.15.2 2.32.52 3.48.86 1.17.34 2.32.75 3.47 1.15 1.15.4 2.32.76 3.51 1.05 1.19.29 2.38.56 3.6.77 1.21.22 2.43.41 3.69.49l.07-.22c-1.07-.71-2.19-1.28-3.31-1.81-1.13-.54-2.28-1-3.44-1.43-1.16-.42-2.35-.77-3.56-1.04-1.21-.26-2.42-.5-3.64-.75-1.22-.24-2.44-.47-3.72-.59l-.49-.03c-.16-.01-.33-.01-.51 0-.17 0-.38.03-.57.07l-.49.15c-.63.22-1.21.49-1.76.79-1.11.6-2.16 1.27-3.19 1.97a50.2 50.2 0 0 0-3 2.2l.12.21z" fill="#2a232b" stroke-width="none" opacity="1"></path></g></g></g><g id="svga-group-eyebrows-right-move" transform="matrix(1,0,0,1,0,0)"><g id="svga-group-eyebrows-right-rotate" transform="matrix(1,1.7453292519943295e-9,-1.7453292519943295e-9,1,1.3646366880948335e-7,-2.1346249923226424e-7)"><g id="svga-group-eyebrows-right"><path id="SvgjsPath13890" d="M134.94 78.92c-2.06-.91-4.15-1.81-6.28-2.42-.53-.16-1.06-.28-1.57-.35l-.37-.04c-.1.01-.19.01-.31.03-.11.01-.24.04-.37.07-.12.02-.25.06-.38.09-1.04.27-2.1.64-3.14 1.03-1.05.39-2.08.84-3.11 1.29-1.03.45-2.08.85-3.15 1.2-1.07.35-2.15.68-3.25.96-1.1.29-2.21.55-3.36.72l-.08-.19c.93-.71 1.91-1.3 2.91-1.86 1-.56 2.02-1.06 3.05-1.53 1.04-.46 2.1-.86 3.19-1.19 1.09-.33 2.19-.63 3.29-.94 1.1-.31 2.21-.61 3.38-.81.15-.02.29-.05.45-.06.15-.02.31-.03.47-.04.15-.01.35 0 .53.01l.46.09c.6.15 1.15.34 1.69.56 1.07.44 2.09.95 3.1 1.49 1 .54 1.98 1.11 2.95 1.71l-.1.18z" fill="#2a232b" stroke-width="none" opacity="1"></path></g></g></g><g id="svga-group-nose-single-move" transform="matrix(1,0,0,1,0,0)"><g id="svga-group-nose-single"><path id="SvgjsPath13879" d="M109.52 109.12c-.37-.88-.94-1.63-1.59-2.29.5.77.95 1.58 1.22 2.42.13.42.21.86.14 1.25-.04.2-.1.36-.23.53-.12.17-.25.34-.41.47-.61.58-1.49.8-2.35.68-.43-.05-.87-.17-1.28-.35-.39-.14-.76-.35-1.13-.54.33-.49.63-1.01.89-1.55-.86.8-1.66 1.61-2.52 2.32-.43.35-.86.7-1.32.96-.45.27-.94.48-1.33.46-.1.01-.18-.02-.27-.03-.08-.05-.15-.05-.26-.14-.21-.13-.43-.31-.65-.48-.44-.34-.87-.72-1.31-1.08-.87-.74-1.75-1.48-2.69-2.17.44.7.95 1.34 1.47 1.97-.44.2-.89.36-1.34.46-.56.11-1.15.13-1.62-.09-.95-.47-1.51-1.61-1.35-2.58.04-.25.12-.44.26-.65.15-.23.32-.46.49-.69.35-.45.72-.9 1.11-1.33l.58-.65c.23-.25.4-.49.58-.74.36-.5.68-1.03.94-1.61.26-.57.42-1.23.52-1.81.1-.59.2-1.18.26-1.77.13-1.18.24-2.36.27-3.55.08-2.37.02-4.76-.45-7.08.05 2.36-.12 4.7-.35 7.03-.13 1.16-.26 2.33-.44 3.48-.09.58-.18 1.15-.28 1.72-.11.58-.23 1.07-.47 1.57-.22.5-.5.99-.82 1.45-.16.23-.33.47-.5.65-.2.23-.39.45-.58.68-.38.46-.74.94-1.09 1.43-.17.25-.35.5-.5.77-.18.29-.3.67-.32 1-.11 1.38.74 2.67 1.98 3.12.64.2 1.29.1 1.86-.1.47-.16.9-.4 1.31-.67.21.25.41.5.63.74.39.44.8.84 1.24 1.25.22.2.45.39.72.57.11.09.32.19.5.27.19.05.39.1.58.1.77 0 1.36-.33 1.88-.66.51-.36.96-.75 1.36-1.2.39-.42.74-.87 1.06-1.34.66.58 1.44 1.09 2.36 1.27.47.1.98.11 1.46 0 .48-.12.94-.36 1.31-.7.19-.17.34-.37.48-.57.15-.2.26-.48.28-.73.03-.54-.1-1.03-.29-1.47z" fill="#c5796d" stroke-width="none" opacity="1"></path></g></g><g id="svga-group-hair-front"><path id="SvgjsPath13920" d="M103 30.3s-8.4-2.1-19.6 1.5c0 0-16.3 7.2-22.9 18.9s-11 21.4-11.9 34.4c-.9 13-2.2 30.6-1.8 42.2 0 0 3.8 49.9 5.6 58.2l8.1-1.3s-5.7-15.1-7-26.2c0 0 7.8 22 11.8 26.1l4.3-.6s-6.4-16.4-7.8-29.1c0 0 9.3 19 12 24l8.1.3s-9.7-19.8-13.3-32.1c0 0 5.8 13 8.4 17.2 0 0-9.4-41.6-10.4-48.6s-4.8-33.8-1.8-42.6c0 0 .7 11.7 1.8 16.5l3.3-8.8s-.7-12.1-.3-15.4c0 0 1 10.4 1.6 13 0 0 6.1-2.7 13-2.6 0 0-1-5.6-1.1-9 0 0 1.6 6 2.8 9.1l4.1.7s-3-12-2.8-16.1c0 0 4.7 14.3 8.3 19.7 0 0-2-8.7-2.3-14.5l5 15.3s5.3-18.1 6-25.1c0 0-1.1 20.5-2.1 24.8 0 0 4.4-10.7 5-13.6l-1 13.1 6.6-.4s4.4-14 4.6-19.8c0 0 2.1 17.5.7 23.2 0 0 2.7-12 2.6-20 0 0 1.7 5 2.6 9.3l1.4-8s4.1 7.6 4.1 18.4c0 0 1.9-9.7 1.6-20.1 0 0 4.9 14.5 5 20.7s-.1 7.6-.1 7.6l2.9-9.4s-1.7 26.2-2.9 41.2-6 44.8-6 44.8l4.1-8.3-6.3 23.7 4.8 1.9 7.6-13.3-5.7 14.7s11.1-14.8 13.3-21.2c0 0-2.7 16.8-4.1 21 0 0 7-2.5 8.1-5.3.3-.7 3.4-19.1 3.4-19.1l-1.4 20.4s4-9.8 5-14.5c1-4.7-.3-23.1-.3-23.1s2.7 13.1 4.9 18.4c0 0-4.1-23.2-4.6-26.1-.4-2.9-3.1-27.2-3.7-30.7-.6-3.4-2.3-22-4.3-29.8s-3.9-18-10-27.4-12.1-14.4-18.2-17.2-15.9-2.6-18.8-1z" fill="#2a232b" stroke-width="none" opacity="1"></path><path id="SvgjsPath13921" d="m94.9 75.3-.3-2.2-.3-2.2c-.3-3-.5-5.9-.6-8.9-.1-3 .1-6 .3-8.9.2-3 .7-5.9 1.2-8.9-.9 2.8-1.5 5.8-1.9 8.8-.4 3-.6 6-.6 9 .1 3 .3 6 .8 9l.4 2.2.5 2.2c.4 1.4.8 2.9 1.3 4.3-.1-.7-.3-1.5-.4-2.2l-.4-2.2zm-7-13.1c-.1-2.3-.1-4.6.1-6.9l.1-1.7.2-1.7.2-1.7c.1-.6.2-1.2.3-1.7-.4 1.1-.7 2.2-1 3.4l-.3 1.7-.3 1.7c-.3 2.3-.4 4.7-.3 7 .1 2.3.4 4.7.9 7S89 73.8 90 76c-.6-2.3-1.1-4.5-1.4-6.8-.4-2.4-.7-4.7-.7-7zm-5.7.8c0 4.1.6 8.3 2 12.2-.6-4.1-1-8.1-1-12.2s.4-8.1 1.1-12.2c-1.4 3.9-2.1 8.1-2.1 12.2zm.5-12.5c-1.3 3.8-2 7.7-2.2 11.7-.2 4 0 8 .9 11.8-.1-4-.1-7.9.1-11.8.2-3.9.7-7.8 1.2-11.7zm-4.1 1.8c-.5 2.5-.8 5.1-1.1 7.7-.2 2.6-.2 5.2-.1 7.8.1 2.6.4 5.2.9 7.7-.1-2.6-.2-5.2-.2-7.7 0-2.6.1-5.1.3-7.7.2-2.6.5-5.1.8-7.7.2-1.3.4-2.5.6-3.8l.3-1.9c.1-.6.2-1.3.4-1.9-.4 1.2-.8 2.5-1.2 3.7-.2 1.2-.5 2.5-.7 3.8zm-3.9 4.3L75 55l.4-1.6.4-1.6c.2-.5.3-1.1.5-1.6-.5 1-1 2-1.4 3l-.6 1.6-.5 1.6c-.6 2.2-1 4.4-1.2 6.7-.2 2.2-.1 4.5.1 6.8.3 2.2.7 4.4 1.5 6.6-.3-2.2-.6-4.4-.7-6.6-.1-2.2-.1-4.4.1-6.6.3-2.3.6-4.5 1.1-6.7zm-3.6-1.8-.6 1.9c-.7 2.5-1.2 5.1-1.4 7.7-.3 2.6-.3 5.2-.2 7.9.2 2.6.5 5.2 1.1 7.8-.2-2.6-.4-5.2-.4-7.8 0-2.6.1-5.2.4-7.7.3-2.6.7-5.1 1.2-7.7l.4-1.9.5-1.9.5-1.9c.2-.6.4-1.2.6-1.9-.6 1.2-1.1 2.4-1.5 3.6l-.6 1.9zm-4.4 8.7.4-2.2.5-2.2.5-2.2c.2-.7.4-1.4.6-2.2-.3.7-.6 1.4-.8 2.1l-.8 2.2-.6 2.2-.5 2.1v.1c-2.3 9.1-3.3 18.6-3.1 28 .1 5.2.6 10.4 1.4 15.6.7 4.3 1.7 8.5 2.9 12.7-.6-1.1-1.2-2.1-1.8-3.2l-3.1-5.4 2.8 5.6c.9 1.9 1.9 3.7 2.8 5.6l1.3 2.5-.8-2.7c-1.4-5-2.5-10.1-3.3-15.2-.8-5.1-1.2-10.3-1.4-15.4-.1-6.9.3-13.7 1.2-20.5 0 .4-.1.8-.1 1.2-.1 3-.1 6 .3 9 .3 3 .9 5.9 1.8 8.8-.5-2.9-.9-5.9-1.1-8.9-.2-3-.2-5.9-.1-8.9.2-2.9.6-5.8 1-8.7zm35.5-26c.6 3.7 1 7.3 1.3 11 .3 3.7.4 7.4.3 11 0 3.7-.3 7.4-.6 11l-.3 2.8-.4 2.7-.4 2.7c-.2.9-.3 1.8-.5 2.7.5-1.8.9-3.6 1.4-5.4l.5-2.7.4-2.8c.5-3.7.8-7.4.9-11.1 0-3.7-.1-7.5-.6-11.1-.4-3.5-1-7.2-2-10.8zm5.6 6.7c.5 4 .9 8 1.2 12 .3 4 .3 8 .3 12.1.8-4 .9-8.1.7-12.2-.3-4-1-8.1-2.2-11.9zm8.4 9.1c-1-3.2-2.2-6.2-3.8-9.2 1.2 3.1 2.2 6.2 3 9.4.8 3.2 1.5 6.4 1.9 9.6.5 3.2.7 6.5.8 9.8v2.5l-.1 2.5-.1 2.5c-.1.8-.1 1.6-.2 2.5.2-.8.3-1.6.5-2.4l.3-2.4.2-2.5.1-2.5c.1-3.3-.1-6.6-.5-9.9-.4-3.5-1.1-6.7-2.1-9.9zm6.7 11.9c-.2-2.2-.6-4.5-1.1-6.7-.5-2.2-1.1-4.3-1.9-6.5-.8-2.1-1.7-4.2-2.8-6.1.7 2.1 1.4 4.2 2 6.4.6 2.1 1.2 4.3 1.7 6.4.5 2.2.9 4.3 1.3 6.5.2 1.1.3 2.2.5 3.3.2 1.1.3 2.2.4 3.3.1-1.1.1-2.2.1-3.4 0-1-.1-2.1-.2-3.2zm5.2 7.7.1 2.4v4.8c0 .8-.1 1.6-.1 2.4.1-.8.2-1.6.4-2.4l.2-2.4.1-2.5.1-2.5c0-3.3-.3-6.6-.8-9.8-.5-3.2-1.2-6.5-2.2-9.6-1-3.1-2.2-6.2-3.7-9.1 1.1 3.1 2.1 6.2 2.9 9.3.8 3.2 1.5 6.3 2 9.5.6 3.5.9 6.7 1 9.9zm.1-20.6c.1.6.2 1.2.3 1.9l.3 1.9c.2 1.2.4 2.5.5 3.7.2 2.5.4 5 .4 7.5s-.1 5-.3 7.5c-.2 2.5-.5 5-.9 7.4.8-2.4 1.3-4.9 1.7-7.4.4-2.5.5-5 .5-7.6 0-2.5-.2-5.1-.6-7.5-.2-1.2-.5-2.5-.8-3.7-.3-1.3-.7-2.5-1.1-3.7zm6 14.3c-.5-2.7-1.1-5.4-2-8.1-.8-2.6-1.8-5.2-2.9-7.7.8 2.6 1.5 5.3 2.2 7.9.6 2.7 1.2 5.3 1.7 8s.9 5.4 1.2 8.1c.2 1.4.3 2.7.4 4.1l.2 2.1c0 .7.1 1.4.1 2.1.1-1.4.1-2.8.2-4.1 0-1.4-.1-2.8-.1-4.1-.1-2.9-.5-5.6-1-8.3zm1 23.1c1-2.2 1.8-4.5 2.2-6.8 0 2.9 0 5.7-.1 8.6-.1 5.6-.5 11.1-1.1 16.7l-.5 4.2-.6 4.2-.6 4.1-.2 1.1-.9 3.3c.1-.2.3-.5.4-.8l-.1.5.1-.6c1-1.9 1.8-3.8 2.6-5.7.8-2.3 1.6-4.6 2.1-7-1.2 2.1-2.2 4.3-3 6.6-.2.6-.4 1.1-.6 1.7l.7-3.2.7-4.1.6-4.2c.8-5.6 1.2-11.2 1.4-16.8.1-4.6 0-9.2-.2-13.8.1-1.9.1-3.8-.2-5.7-.1.4-.1.8-.1 1.2-.4-5.1-1.1-10.1-2.1-15.1.7 5.5 1.2 11.1 1.5 16.7 0 .9.1 1.8.1 2.7-.1 1.2-.3 2.3-.5 3.4-.4 2.9-1 5.8-1.6 8.8zM78.7 33.8c-7.1 3.5-13 9-17.6 15.3-4.6 6.4-7.9 13.7-10 21.2-2.2 7.6-3.3 15.4-3.8 23.2-.5 7.8-.5 15.7-.2 23.5.3 7.8 1 15.6 2.3 23.3 1.3 7.7 3.1 15.4 5.8 22.7 2.7 7.4 6.1 14.4 10.3 21-4.1-6.6-7.4-13.8-9.8-21.2-2.5-7.4-4.3-15-5.5-22.7-2.3-15.4-2.7-31.1-1.9-46.6.5-7.8 1.5-15.5 3.7-23 2.1-7.5 5.3-14.6 9.8-21 4.5-6.3 10.3-11.8 17.2-15.3 6.8-3.6 14.8-5.4 22.6-4.5-7.9-1-15.9.6-22.9 4.1zM65.6 161.9l-2.9-7.4-2.5-7.6c-3-10.2-4.9-20.7-5.5-31.2-.7-10.6-.2-21.2 1.5-31.7C58 73.5 60.9 63.2 65 53.4l-3.1 7.4-2.6 7.6-2.1 7.6-1.6 7.8c-1.9 10.5-2.4 21.2-1.8 31.9.2 3.2.5 6.4 1 9.6l-.1 3.4v3.7l.1 3.7.2 3.7c.4 4.9 1.1 9.9 2.1 14.7 1.1 4.9 2.3 9.6 4 14.3 1.6 4.7 3.5 9.3 5.8 13.7-1.9-4.6-3.6-9.2-5.1-13.9-1.5-4.7-2.8-9.5-3.7-14.3-1-4.8-1.8-9.7-2.3-14.6l-.4-3.7-.3-3.7-.2-3.7-.1-3.2c1 7.3 2.6 14.6 4.8 21.6l2.6 7.6 3 7.4 3.5 7.2 4 6.9-3.8-7-3.3-7.2zm12 7.7-1.9-4.5-1.8-4.6c-2.3-6.1-4.4-12.4-6.1-18.7-1.8-6.3-3.2-12.8-4.3-19.2-1.1-6.5-1.9-13-2.5-19.6.1 6.6.7 13.2 1.7 19.7s2.4 13 4.1 19.4c1.8 6.4 3.9 12.6 6.4 18.7l1.9 4.6 2.1 4.5 2.2 4.4 2.4 4.3-2.1-4.5-2.1-4.5zM62.8 163c.8 3.6 1.8 7 2.9 10.4 1.2 3.4 2.4 6.8 3.9 10.1-.8-3.6-1.8-7-2.9-10.4-1.2-3.4-2.4-6.8-3.9-10.1zm-13.1 1.3c-.4-3.5-.8-7.1-1.2-10.6l-1-10.6v5.4c.1 1.8.2 3.6.2 5.4.2 3.6.5 7.1.9 10.7.4 3.6.9 7.1 1.5 10.6s1.3 7 2.2 10.5L51 174.9c-.5-3.5-.9-7-1.3-10.6zM149.6 90c-.3-3.7-.8-7.3-1.4-10.9-1.2-7.2-3.2-14.4-6.4-21S134 45.4 128.1 41c-5.8-4.4-13-7.2-20.4-7.2 7.3.1 14.4 3.1 20.1 7.6 2.9 2.2 5.5 4.8 7.7 7.7 2.2 2.9 4.1 6 5.6 9.3 3.1 6.6 5 13.7 6.2 20.9.6 3.6 1.1 7.2 1.4 10.8.4 3.6.6 7.3.7 10.9.6 14.6-.6 29.2-3.3 43.6-1.4 7.2-3.1 14.3-5.3 21.2-2.1 7-4.7 13.9-7.6 20.6 3.1-6.6 5.8-13.4 8.1-20.4 2.3-7 4.2-14.1 5.6-21.2 2.9-14.4 4.1-29.1 3.6-43.7-.3-3.8-.5-7.5-.9-11.1zm-.9 51.8-.2 3c-.1 2-.3 3.9-.5 5.9-.4 3.9-.8 7.9-1.3 11.8-.5 3.9-1.1 7.8-1.8 11.7-.7 3.9-1.5 7.8-2.3 11.6 1.2-3.8 2.2-7.6 3-11.5.9-3.9 1.5-7.8 2.1-11.7.5-3.9.9-7.9 1.1-11.9.1-2 .1-4 .2-5.9 0-2 0-4-.1-5.9-.1.9-.2 1.9-.2 2.9zm-9.4-12.4c1.2-9 2.1-18.1 2.5-27.2s.4-18.2 0-27.3c.1 9.1-.2 18.2-.7 27.3s-1.5 18.1-2.8 27.1c-1.2 9-2.9 17.9-4.8 26.8l-1.5 6.6-1.6 6.6-1.7 6.6-1.9 6.6 2.1-6.5 2-6.5 1.8-6.6 1.6-6.6c2.1-8.9 3.7-17.9 5-26.9zm-1.5 29.5c-1.1 4.1-2.4 8.2-3.8 12.2 1.8-3.9 3.3-7.9 4.5-12 1.3-4.1 2.2-8.3 3-12.5.7-4.2 1.2-8.5 1.4-12.8l.1-3.2v-3.2l-.1-3.2c-.1-1.1-.1-2.1-.2-3.2 0 1.1-.1 2.1-.1 3.2l-.1 3.2-.2 3.2-.2 3.2c-.4 4.2-.9 8.5-1.7 12.6-.5 4.2-1.5 8.4-2.6 12.5zm-7.4-2.5-.6 5.1c-.1 1.7-.3 3.4-.4 5.1l3.5-20.1 3.6-20c-1 3.3-1.8 6.6-2.5 9.9-.8 3.3-1.4 6.6-2 10-.6 3.3-1.2 6.6-1.6 10zm29.4-9.8c-.8-5.2-1.5-10.5-2.2-15.7-.7-5.2-1.4-10.5-2-15.8l-.9-8c-.4-4.8-.9-9.6-1.5-14.4-1-7.3-2.4-14.6-4.1-21.9-.9-3.6-1.9-7.2-3.1-10.7-1.2-3.5-2.7-7-4.5-10.2-1.8-3.3-3.9-6.4-6.4-9.1-2.5-2.8-5.4-5.2-8.5-7.2-3.2-2-6.7-3.4-10.3-4.2-3.6-.8-7.4-.9-11-.1 3.7-.6 7.4-.5 11 .4 3.6.9 7 2.4 10.1 4.4 3.1 2 5.9 4.4 8.3 7.2 2.4 2.8 4.5 5.8 6.2 9.1 3.4 6.5 5.7 13.6 7.4 20.8 1.6 7.2 3.1 14.4 4 21.8 1 7.3 1.7 14.7 2.1 22.1.4 7.4.5 14.8.5 22.2 0 7.4-.3 14.8-.7 22.2-.4 7.4-.9 14.8-1.5 22.1.8-7.4 1.5-14.7 2-22.1.5-7.4.8-14.8 1-22.2.1-5.1.1-10.2-.1-15.3.3 3.1.7 6.1 1.1 9.2.7 5.2 1.5 10.5 2.4 15.7.5 2.6.9 5.2 1.5 7.8.5 2.6 1.1 5.2 1.7 7.8l-2.5-15.9z" fill="#1b141c" stroke-width="none" opacity="1"></path></g><g id="svga-group-glasses-single-move" transform="matrix(1,0,0,1,0,0)"><g id="svga-group-glasses-single"></g></g></g></g></g><rect id="svga-credit-rect" width="200" height="15" x="0" y="185" fill="#ecf0f1" opacity="0.5" style="display: none;"></rect><text id="svga-credit-text" font-family="Avenir Next, Roboto, Helvetica, Arial, sans-serif" font-size="10px" text-anchor="start" font-weight="400" size="10px" anchor="start" weight="400" fill="#333333" x="33.40447998046875" y="182.60824704170227" style="display: none;"><tspan id="SvgjsTspan13689" dy="13" x="33.40447998046875">Created on AvatarMaker.com</tspan></text></g><defs id="SvgjsDefs13641"></defs></svg>